<svg width="1920" height="670" viewBox="0 0 1920 670" fill="none" xmlns="http://www.w3.org/2000/svg">
<path d="M1058.5 400C873.228 438.977 786.091 447.717 531.5 541C335.539 617.379 217.891 642.434 0.5 669.879V-0.843964L1924 -0.843956V105.5C1910.53 128.532 1898.32 138.776 1866 151C1562.95 285.008 1385.09 336.368 1058.5 400Z" fill="#5A2F8F" fill-opacity="0.1"/>
<path d="M288 497C179.479 513.452 115.805 518.583 0 524.5V-0.5L1923 -1.5V219.5C1879.48 255.523 1865.41 264.529 1849 272C1755.41 308.737 1695.56 324.575 1563.5 336.5C1291.96 373.177 1137.39 393.115 848 425C631.376 447.428 508.781 463.126 288 497Z" fill="#5A2F8F" fill-opacity="0.07"/>
</svg>
