<svg width="345" height="88" viewBox="0 0 345 88" fill="none" xmlns="http://www.w3.org/2000/svg">
<path d="M14.7657 70.3608H4.67578V21.0945H39.9726V30.9546H14.7657V40.8148H29.8828V50.675H14.7657V70.3608ZM69.4335 66.0664C68.6601 66.7533 67.8282 67.4062 66.9375 68.0245C66.0702 68.6199 65.1564 69.1468 64.1952 69.605C63.2343 70.0401 62.2383 70.3837 61.2069 70.6358C60.1992 70.9105 59.1681 71.048 58.1133 71.048C55.7931 71.048 53.6133 70.6472 51.5742 69.8454C49.5351 69.0439 47.7423 67.9102 46.1952 66.4443C44.6718 64.9553 43.4649 63.1576 42.5742 61.0503C41.7069 58.9204 41.2734 56.5384 41.2734 53.9043V33.5656H50.8359V53.9043C50.8359 55.1412 51.0234 56.252 51.3984 57.2367C51.7968 58.1989 52.3242 59.0119 52.9806 59.6762C53.6367 60.3402 54.3984 60.8442 55.2657 61.1878C56.1564 61.5314 57.1056 61.7032 58.1133 61.7032C59.0976 61.7032 60.0234 61.4857 60.8907 61.0503C61.7814 60.5924 62.5548 59.9966 63.2109 59.2637C63.8673 58.5308 64.3827 57.7064 64.7577 56.7902C65.1327 55.8512 65.3202 54.8893 65.3202 53.9043V33.5656H74.9181V70.3608H72.5976L69.4335 66.0664ZM91.8633 70.3608H82.2657V33.5656H84.5859L87.75 37.1388C89.2968 35.7644 91.0431 34.7107 92.9883 33.9778C94.9569 33.222 97.0077 32.8441 99.1407 32.8441C101.438 32.8441 103.606 33.2795 105.644 34.1496C107.684 34.9972 109.465 36.1766 110.988 37.6885C112.512 39.1772 113.707 40.9292 114.574 42.9447C115.465 44.9374 115.91 47.0676 115.91 49.3349V70.3608H106.313V49.3349C106.313 48.373 106.125 47.4683 105.75 46.6208C105.375 45.7506 104.859 44.9948 104.203 44.3534C103.547 43.7122 102.785 43.2083 101.918 42.8418C101.051 42.4753 100.125 42.2921 99.1407 42.2921C98.1327 42.2921 97.1835 42.4753 96.2931 42.8418C95.4024 43.2083 94.629 43.7122 93.9726 44.3534C93.3165 44.9948 92.8008 45.7506 92.4258 46.6208C92.0508 47.4683 91.8633 48.373 91.8633 49.3349V70.3608ZM164.039 65.3104C161.695 67.2802 159.07 68.7917 156.164 69.8454C153.258 70.899 150.246 71.4259 147.129 71.4259C144.738 71.4259 142.43 71.1166 140.203 70.4983C138 69.9029 135.926 69.0553 133.981 67.9559C132.059 66.8337 130.301 65.4936 128.707 63.9363C127.113 62.3787 125.742 60.661 124.594 58.7829C123.469 56.8817 122.59 54.8547 121.957 52.702C121.348 50.5261 121.043 48.2698 121.043 45.9339C121.043 43.5976 121.348 41.3417 121.957 39.1657C122.59 36.9898 123.469 34.9629 124.594 33.0848C125.742 31.1836 127.113 29.4545 128.707 27.8969C130.301 26.3395 132.059 25.0111 133.981 23.9117C135.926 22.7894 138 21.9305 140.203 21.335C142.43 20.7166 144.738 20.4074 147.129 20.4074C150.246 20.4074 153.258 20.9342 156.164 21.9877C159.07 23.0184 161.695 24.5301 164.039 26.5227L158.695 35.1118C157.219 33.5542 155.473 32.3633 153.457 31.5386C151.442 30.6914 149.332 30.2675 147.129 30.2675C144.902 30.2675 142.817 30.6797 140.871 31.5043C138.926 32.3287 137.227 33.4513 135.773 34.8711C134.32 36.2683 133.172 37.9289 132.328 39.8529C131.484 41.7538 131.063 43.7808 131.063 45.9339C131.063 48.0866 131.484 50.1139 132.328 52.0148C133.172 53.8928 134.32 55.5419 135.773 56.962C137.227 58.3822 138.926 59.5044 140.871 60.3288C142.817 61.1535 144.902 61.5657 147.129 61.5657C149.332 61.5657 151.442 61.1535 153.457 60.3288C155.473 59.4815 157.219 58.279 158.695 56.7216L164.039 65.3104ZM178.488 70.3608H168.891V33.5656H171.211L174.375 37.9289C175.922 36.5548 177.68 35.5011 179.648 34.7682C181.617 34.0124 183.656 33.6345 185.766 33.6345H194.238V42.9793H185.766C184.758 42.9793 183.809 43.1625 182.918 43.529C182.027 43.8955 181.254 44.3991 180.598 45.0406C179.942 45.6817 179.426 46.4375 179.051 47.308C178.676 48.1784 178.488 49.106 178.488 50.0907V70.3608ZM234.457 70.3608H232.137L228.41 65.3104C227.496 66.1122 226.523 66.868 225.492 67.578C224.484 68.2652 223.418 68.8721 222.293 69.3989C221.168 69.9029 220.008 70.3036 218.812 70.6012C217.641 70.8991 216.445 71.048 215.227 71.048C212.578 71.048 210.082 70.6126 207.738 69.7425C205.418 68.8721 203.379 67.6123 201.621 65.9632C199.887 64.2913 198.516 62.2529 197.508 59.848C196.5 57.4431 195.996 54.7061 195.996 51.6369C195.996 48.7738 196.5 46.1514 197.508 43.7694C198.516 41.3645 199.887 39.303 201.621 37.5853C203.379 35.8676 205.418 34.5389 207.738 33.5999C210.082 32.638 212.578 32.1572 215.227 32.1572C216.445 32.1572 217.652 32.3059 218.848 32.6037C220.043 32.9016 221.203 33.3138 222.328 33.8406C223.453 34.3674 224.519 34.9857 225.527 35.6958C226.558 36.4058 227.519 37.1731 228.41 37.9975L232.137 33.6345H234.457V70.3608ZM224.789 51.6369C224.789 50.3543 224.531 49.1174 224.016 47.9265C223.523 46.7125 222.844 45.6474 221.977 44.7313C221.109 43.7923 220.09 43.0479 218.918 42.4982C217.769 41.9257 216.539 41.6392 215.227 41.6392C213.914 41.6392 212.672 41.8568 211.5 42.2921C210.352 42.7272 209.344 43.3686 208.477 44.2159C207.633 45.0634 206.965 46.1171 206.473 47.3769C205.981 48.6134 205.734 50.0336 205.734 51.6369C205.734 53.2402 205.981 54.6715 206.473 55.9313C206.965 57.1681 207.633 58.2104 208.477 59.0576C209.344 59.9052 210.352 60.5463 211.5 60.9817C212.672 61.4168 213.914 61.6343 215.227 61.6343C216.539 61.6343 217.769 61.3596 218.918 60.8099C220.09 60.2373 221.109 59.493 221.977 58.5768C222.844 57.6378 223.523 56.5727 224.016 55.3816C224.531 54.1678 224.789 52.9195 224.789 51.6369ZM254.004 70.3608H244.406V42.9104H239.731V33.5656H244.406V31.8136C244.406 29.546 244.84 27.416 245.707 25.4233C246.598 23.4307 247.805 21.7014 249.328 20.2356C250.875 18.7468 252.668 17.5787 254.707 16.7313C256.746 15.861 258.926 15.4258 261.246 15.4258H268.453V24.7706H261.246C260.215 24.7706 259.254 24.9538 258.363 25.3203C257.496 25.6638 256.734 26.1563 256.078 26.7976C255.445 27.416 254.941 28.1604 254.566 29.0307C254.191 29.8781 254.004 30.8057 254.004 31.8136V33.5656H265.781V42.9104H254.004V70.3608ZM289.231 70.3608C286.91 70.3608 284.731 69.9372 282.691 69.0896C280.652 68.2192 278.859 67.0398 277.312 65.551C275.789 64.0395 274.582 62.2872 273.691 60.2945C272.824 58.3018 272.391 56.1719 272.391 53.9043V42.9793H267.715V33.6345H272.391V18.9301H281.953V33.6345H296.508V42.9793H281.953V53.9043C281.953 54.8893 282.141 55.8169 282.516 56.687C282.891 57.5346 283.406 58.279 284.062 58.9204C284.719 59.5616 285.492 60.077 286.383 60.4663C287.273 60.8328 288.223 61.016 289.231 61.016H296.508V70.3608H289.231Z" fill="#F4F4F4"/>
<path d="M336.657 24.3448L336.657 24.3448C333.091 22.333 328.532 23.5268 326.474 27.0111L314.451 47.359C312.393 50.8433 313.614 55.2988 317.18 57.3106C320.745 59.3223 325.305 58.1286 327.363 54.6443L339.385 34.2964C341.444 30.8121 340.222 26.3566 336.657 24.3448Z" fill="#FFAF5F"/>
<path d="M325.929 3.64833L325.929 3.64832C322.365 1.63341 317.81 2.8261 315.754 6.31226L303.75 26.6709C301.695 30.1571 302.917 34.6166 306.481 36.6315C310.045 38.6464 314.6 37.4537 316.656 33.9676L328.66 13.6089C330.715 10.1227 329.492 5.66324 325.929 3.64833Z" fill="#36C7D0"/>
</svg>
